PathFileType	4	(X/Y/Z)	C:/Users/beibeiliu/ov580/test_trc\sequence.26_training_dense_right.trc
DataRate	CameraRate	NumFrames	NumMarkers	Units	OrigDataRate	OrigDataStartFrame	OrigNumFrames
120	120	10	19	mm	120	28	54
Frame#	Time	ThumbCMC			ThumbMCP			ThumbIP			ThumbTip			IndexMCP			IndexPIP			IndexTip			MiddleMCP			MiddlePIP			MiddleTip			RingMCP			RingPIP			RingTip			PinkyMCP			PinkyPIP			PinkyTip			BackHand1			BackHand2			BackHand3	
		X0	Y0	Z0	X1	Y1	Z1	X2	Y2	Z2	X3	Y3	Z3	X4	Y4	Z4	X5	Y5	Z5	X6	Y6	Z6	X7	Y7	Z7	X8	Y8	Z8	X9	Y9	Z9	X10	Y10	Z10	X11	Y11	Z11	X12	Y12	Z12	X13	Y13	Z13	X14	Y14	Z14	X15	Y15	Z15	X16	Y16	Z16	X17	Y17	Z17	X18	Y18	Z18	
27	0.225	102.669	33.3497	143.509	87.1563	37.9571	122.655	80.2753	46.3719	94.0146	72.8241	53.2089	77.8485	90.2104	2.0953	76.0059	63.8606	-7.74689	84.395	73.1579	1.80321	117.658	94.1422	-17.1116	80.3599	68.2339	-24.8348	99.079	84.5609	-4.29323	127.126	101.103	-34.9961	87.4461	74.0276	-32.4314	104.792	91.5525	-18.5976	131.841	125.419	-50.0784	91.119	118.272	-63.4021	77.1275	111.838	-72.3422	52.436	141.567	-15.76	119.28	147.699	-5.65241	152.54	133.313	16.7825	129.032	
28	0.233333	116.199	38.8159	141.364	104.559	50.3095	119.491	99.0785	58.8204	98.5585	94.3279	69.4149	78.9239	87.5133	17.0335	76.3044	61.1275	15.3339	87.4803	77.5309	19.5162	120.22	85.6174	-5.32985	82.1734	60.6857	-1.13591	99.5053	81.847	9.11364	130.213	84.1237	-22.7353	89.6626	62.5327	-15.768	109.545	82.746	-4.20084	133.318	103.513	-46.6437	93.7974	91.108	-55.7129	78.7852	82.94	-68.6722	62.6856	134.88	-17.7003	121.515	143.831	-13.8881	152.478	136.908	16.2285	127.739	
29	0.241667	132.887	41.3883	144.023	124.348	57.0343	123.564	124.453	70.857	97.5067	122.603	77.8916	76.5535	96.8847	27.3482	77.1917	72.962	34.9092	87.3018	85.3995	33.2968	118.579	88.4325	8.23052	81.9503	67.1002	19.3109	102.115	91.8383	26.41	129.296	85.1829	-8.82312	90.3236	64.8609	7.84348	108.78	88.2756	13.6085	132.361	94.7967	-34.5991	96.1009	78.1006	-41.5236	79.5989	66.9146	-51.454	64.6212	131.654	-18.0886	121	142.617	-17.6445	152.434	145.714	15.5961	132.084	
30	0.25	152.357	40.9786	142.692	149.731	56.9115	122.654	152.289	68.1829	101.226	154.028	76.2708	82.0321	121.11	38.0043	77.485	94.6118	47.8921	87.0637	103.258	44.5505	117.407	103.883	19.5544	81.9129	83.9088	37.2809	99.8054	105.8	33.2907	128.346	93.2284	4.69294	86.8451	78.382	26.2849	102.711	100.236	21.4556	131.241	96.29	-21.4974	94.3289	81.2435	-21.5228	77.0651	68.2383	-28.5403	61.0291	133.449	-17.6238	124.211	142.563	-16.8149	152.163	156.894	9.41228	133.971	
31	0.258333	170.249	31.6032	146.39	173.04	47.5343	121.842	180.152	56.2799	101.733	186.961	65.2683	81.0926	143.007	28.3394	78.3138	121.079	51.3296	84.3601	126.753	43.8715	116.689	122.155	19.15	79.3449	105.19	40.7047	94.855	126.605	36.0591	127.392	110.075	8.19259	84.1174	96.9104	30.9029	98.5433	115.215	29.3948	124.309	104.061	-20.0609	95.503	92.8061	-16.6921	76.9416	80.5844	-18.1061	55.2726	140.971	-19.8592	125.889	150.36	-21.5649	157.075	165.58	-2.2245	137.154	
32	0.266667	188.142	21.3868	152.071	193.862	34.1468	124.551	204.778	40.1406	102.036	211.533	45.7236	83.2807	165.724	14.567	79.5226	147.519	43.3725	82.1622	148.508	39.5464	112.377	145.658	6.69632	81.3255	131.12	35.5764	90.4567	141.449	27.4504	125.401	129.402	-3.12684	84.0439	118.437	24.3574	91.0181	131.881	20.5156	123.312	120.46	-26.9284	97.192	106.031	-26.8388	77.5906	96.2262	-24.2076	51.5254	150.461	-31.7541	131.569	152.762	-30.4435	160.336	177.363	-14.2968	139.235	
33	0.275	197.733	14.7839	153.347	205.782	27.0973	131.684	218.739	31.5318	109.032	231.883	34.3488	89.1239	185.303	6.6354	79.0353	166.963	29.9019	78.5791	164.307	27.776	112.227	161.666	-6.14978	83.5373	148.646	24.2438	87.2057	157.711	22.5451	122.321	145.068	-12.6083	82.2676	134.776	14.0937	88.5558	143.674	13.9053	120.028	136.27	-38.4208	96.5956	126.185	-39.8678	76.9121	115.805	-42.439	50.155	165.12	-39.1473	135.559	165.904	-34.4081	162.571	192.821	-17.8309	147.917	
34	0.283333	209.056	10.8286	154.892	220.903	22.055	132.295	230.922	24.1639	113.977	248.953	29.1575	95.7358	201.16	-5.47867	84.864	185.132	22.8806	81.1161	180.466	22.7103	112.298	185.106	-10.6016	82.4471	167.711	13.6989	85.5291	173.885	13.2064	123.885	168.873	-22.9971	85.2626	154.208	1.78089	86.0717	165.037	7.17128	120.713	157.872	-47.5581	99.1542	149.692	-51.5259	77.7444	146.364	-56.2151	53.5793	178.806	-42.7858	141.583	178.799	-36.0906	170.212	206.389	-22.2079	150.882	
35	0.291667	216.725	17.9959	161.775	230.727	28.0993	135.191	245.4	34.0013	117.948	257.031	35.668	100.707	224.241	1.16544	86.6317	201.034	16.2166	80.9341	192.949	23.3451	112.379	204.963	-12.3158	84.234	183.537	10.3898	86.3682	183.331	11.2163	123.464	190.575	-28.3282	88.426	175.521	0.119317	87.1124	177.448	2.9767	122.381	186.718	-52.2548	99.4941	183.018	-55.5618	82.1765	181.334	-63.7333	55.6659	204.015	-40.7331	145.297	194.774	-34.0425	175.66	220.492	-18.4421	157.96	
36	0.3	217.923	33.3533	159.93	223.23	47.1566	139.135	242.13	57.7931	117.274	251.979	65.3304	102.537	234.968	15.3248	90.692	209.373	28.7311	81.1006	196.426	25.3558	111.383	223.817	2.64712	87.6204	195.817	13.4542	85.8564	193.033	19.7471	124.254	215.295	-18.1313	90.3626	189.412	0.755499	87.3757	189.075	6.95295	119.777	214.878	-44.7716	106.068	219.11	-53.1605	79.7629	224.203	-57.9127	62.4814	223.247	-25.6503	147.349	214.814	-22.1626	172.901	230.827	2.21844	163.754	
